# xmcd
#
# Track frame offsets: 
#        150
#        12560
#        23892
#        36565
#        52650
#        69250
#        83240
#        97040
#        114495
#        134155
#        145175
#        165385
#        191730
#        201697
#
# Disc length: 2986 seconds
#
# Revision: 9
# Processed by: cddbd v1.5.2PL0 Copyright (c) Steve Scherf et al.
# Submitted via: ExactAudioCopy v0.95a5
#
DISCID=cc0ba80e
DTITLE=Maria Bethânia - Diamante verdadeiro (ao vivo) [CD2]
DYEAR=1999
DGENRE=MPB
TTITLE0=Outra vez
TTITLE1=Não tenha medo
TTITLE2=Mel · Encouraçado
TTITLE3=Resposta · É o Amor
TTITLE4=Fala baixinho · Diamante Verdadeiro
TTITLE5=As flores do jardim de nossa casa
TTITLE6=Resto de mim · Olhos nos olhos
TTITLE7=Eu queria que você viesse · Sonho meu · Vazio
TTITLE8=Marginália II · A força que nunca seca
TTITLE9=Assentamento · Carcará
TTITLE10=Roda viva · Maninha
TTITLE11=Navio negreiro (Castro Alves) · Um Índio
TTITLE12=Vila do Adeus
TTITLE13=Na carreira
EXTD=BMG 7433171155-2
EXTT0=
EXTT1=
EXTT2=
EXTT3=
EXTT4=
EXTT5=
EXTT6=
EXTT7=
EXTT8=
EXTT9=
EXTT10=
EXTT11=
EXTT12=
EXTT13=
PLAYORDER=
